<svg xmlns="http://www.w3.org/2000/svg" version="1.1" xmlns:xlink="http://www.w3.org/1999/xlink" xmlns:svgjs="http://svgjs.dev/svgjs" width="2000" height="1247" viewBox="0 0 2000 1247"><g transform="matrix(1,0,0,1,-1.2121212121212466,0.504858299595071)"><svg viewBox="0 0 396 247" data-background-color="#ffffff" preserveAspectRatio="xMidYMid meet" height="1247" width="2000" xmlns="http://www.w3.org/2000/svg" xmlns:xlink="http://www.w3.org/1999/xlink"><g id="tight-bounds" transform="matrix(1,0,0,1,0.2400000000000091,-0.09999999999999432)"><svg viewBox="0 0 395.52 247.2" height="247.2" width="395.52"><g><svg></svg></g><g><svg viewBox="0 0 395.52 247.2" height="247.2" width="395.52"><mask id="d6e7b347-edec-4e72-ae55-23b7a746e46c"><rect width="395.52" height="247.2" fill="white"></rect><g transform="matrix(1,0,0,1,141.8035059760956,37.08)" id="clone"><svg viewBox="0 0 111.91298804780877 173.04" height="173.04" width="111.91298804780877"><g><svg viewBox="0 0 111.91298804780877 173.04" height="173.04" width="111.91298804780877"><g><svg viewBox="0 0 111.91298804780877 173.04" height="173.04" width="111.91298804780877"><g><svg viewBox="0 0 111.91298804780877 173.04" height="173.04" width="111.91298804780877"><g id="SvgjsG1879"><svg viewBox="0 0 111.91298804780877 173.04" height="173.04" width="111.91298804780877" id="SvgjsSvg1878"><g><svg viewBox="0 0 111.91298804780877 173.04" height="173.04" width="111.91298804780877"><g transform="matrix(1,0,0,1,0,0)"><svg width="111.91298804780877" viewBox="-0.8999999999999999 -35.3 25.349999999999998 38.65" height="173.04" data-palette-color="#a61713"><path d="M13.35-32.3Q16.8-32.3 20.5-30.8L20.5-30.8 19.85-26.95 19.15-26.75Q17.7-27.85 16.07-28.45 14.45-29.05 12.85-29.05L12.85-29.05Q11-29.05 9.63-28.3 8.25-27.55 7.53-26.35 6.8-25.15 6.8-23.85L6.8-23.85Q6.8-22.5 7.63-21.48 8.45-20.45 9.7-19.7 10.95-18.95 13.1-17.9L13.1-17.9Q15.8-16.65 17.45-15.58 19.1-14.5 20.28-12.85 21.45-11.2 21.45-8.85L21.45-8.85Q21.45-6.35 20.1-4.25 18.75-2.15 16.3-0.9 13.85 0.35 10.7 0.35L10.7 0.35Q8.6 0.35 6.33-0.23 4.05-0.8 2.1-1.9L2.1-1.9 2.6-6 3.15-6.25Q4.9-4.55 7.03-3.73 9.15-2.9 11.1-2.9L11.1-2.9Q13-2.9 14.48-3.65 15.95-4.4 16.73-5.65 17.5-6.9 17.5-8.3L17.5-8.3Q17.5-10.4 15.9-11.68 14.3-12.95 11.05-14.45L11.05-14.45Q8.4-15.75 6.8-16.78 5.2-17.8 4.05-19.43 2.9-21.05 2.9-23.4L2.9-23.4Q2.9-25.85 4.23-27.9 5.55-29.95 7.93-31.13 10.3-32.3 13.35-32.3L13.35-32.3Z" opacity="1" transform="matrix(1,0,0,1,0,0)" fill="black" class="wordmark-text-0" id="SvgjsPath1877" stroke-width="5" stroke="black" stroke-linejoin="round"></path></svg></g></svg></g></svg></g></svg></g><g></g></svg></g></svg></g></svg></g></mask><g mask="url(#d6e7b347-edec-4e72-ae55-23b7a746e46c)"><g><path d="M206.838 29.509c13.256 0 26.993 2.882 41.21 8.645v0l-3.747 22.19-4.034 1.153c-5.572-4.227-11.489-7.493-17.752-9.798-6.225-2.305-12.411-3.458-18.559-3.458v0c-7.108 0-13.295 1.441-18.559 4.322-5.303 2.882-9.337 6.628-12.104 11.239-2.805 4.611-4.207 9.414-4.207 14.41v0c0 5.187 1.595 9.741 4.784 13.659 3.151 3.958 7.128 7.377 11.93 10.26 4.803 2.882 11.335 6.34 19.597 10.374v0c10.375 4.803 18.732 9.26 25.072 13.372 6.34 4.15 11.777 9.395 16.311 15.734 4.496 6.34 6.743 14.025 6.743 23.055v0c0 9.606-2.594 18.444-7.781 26.512-5.187 8.069-12.488 14.505-21.902 19.309-9.414 4.803-20.173 7.205-32.276 7.204v0c-8.069 0-16.465-1.114-25.187-3.343-8.761-2.19-16.887-5.399-24.38-9.625v0l2.882-23.631 3.17-1.441c6.724 6.532 14.178 11.374 22.363 14.524 8.146 3.189 15.965 4.784 23.458 4.784v0c7.301 0 13.794-1.441 19.481-4.322 5.648-2.882 9.971-6.724 12.968-11.528 2.959-4.803 4.438-9.894 4.438-15.273v0c0-8.069-3.074-14.563-9.222-19.481-6.148-4.88-15.466-10.202-27.954-15.965v0c-10.182-4.995-18.348-9.472-24.495-13.43-6.148-3.919-11.431-9.01-15.85-15.273-4.419-6.225-6.628-13.852-6.628-22.882v0c0-9.414 2.555-18.059 7.666-25.936 5.072-7.877 12.18-14.082 21.325-18.617 9.107-4.496 19.519-6.743 31.239-6.743z" fill="#a61713" fill-rule="nonzero" stroke="none" stroke-width="1" stroke-linecap="butt" stroke-linejoin="miter" stroke-miterlimit="10" stroke-dasharray="" stroke-dashoffset="0" font-family="none" font-weight="none" font-size="none" text-anchor="none" style="mix-blend-mode: normal" data-fill-palette-color="tertiary"></path></g></g><g transform="matrix(1,0,0,1,141.8035059760956,37.08)"><svg viewBox="0 0 111.91298804780877 173.04" height="173.04" width="111.91298804780877"><g><svg viewBox="0 0 111.91298804780877 173.04" height="173.04" width="111.91298804780877"><g><svg viewBox="0 0 111.91298804780877 173.04" height="173.04" width="111.91298804780877"><g><svg viewBox="0 0 111.91298804780877 173.04" height="173.04" width="111.91298804780877"><g id="textblocktransform"><svg viewBox="0 0 111.91298804780877 173.04" height="173.04" width="111.91298804780877" id="textblock"><g><svg viewBox="0 0 111.91298804780877 173.04" height="173.04" width="111.91298804780877"><g transform="matrix(1,0,0,1,0,0)"><svg width="111.91298804780877" viewBox="-0.8999999999999999 -35.3 25.349999999999998 38.65" height="173.04" data-palette-color="#a61713"><path d="M13.35-32.3Q16.8-32.3 20.5-30.8L20.5-30.8 19.85-26.95 19.15-26.75Q17.7-27.85 16.07-28.45 14.45-29.05 12.85-29.05L12.85-29.05Q11-29.05 9.63-28.3 8.25-27.55 7.53-26.35 6.8-25.15 6.8-23.85L6.8-23.85Q6.8-22.5 7.63-21.48 8.45-20.45 9.7-19.7 10.95-18.95 13.1-17.9L13.1-17.9Q15.8-16.65 17.45-15.58 19.1-14.5 20.28-12.85 21.45-11.2 21.45-8.85L21.45-8.85Q21.45-6.35 20.1-4.25 18.75-2.15 16.3-0.9 13.85 0.35 10.7 0.35L10.7 0.35Q8.6 0.35 6.33-0.23 4.05-0.8 2.1-1.9L2.1-1.9 2.6-6 3.15-6.25Q4.9-4.55 7.03-3.73 9.15-2.9 11.1-2.9L11.1-2.9Q13-2.9 14.48-3.65 15.95-4.4 16.73-5.65 17.5-6.9 17.5-8.3L17.5-8.3Q17.5-10.4 15.9-11.68 14.3-12.95 11.05-14.45L11.05-14.45Q8.4-15.75 6.8-16.78 5.2-17.8 4.05-19.43 2.9-21.05 2.9-23.4L2.9-23.4Q2.9-25.85 4.23-27.9 5.55-29.95 7.93-31.13 10.3-32.3 13.35-32.3L13.35-32.3Z" opacity="1" transform="matrix(1,0,0,1,0,0)" fill="#a61713" class="wordmark-text-0" data-fill-palette-color="primary" id="text-0"></path></svg></g></svg></g></svg></g></svg></g><g></g></svg></g></svg></g></svg></g></svg></g><defs></defs></svg><rect width="395.52" height="247.2" fill="none" stroke="none" visibility="hidden"></rect></g></svg></g></svg>